<?xml version="1.0" encoding="UTF-8"?>
<!DOCTYPE svg PUBLIC "-//W3C//DTD SVG 1.1//EN" "http://www.w3.org/Graphics/SVG/1.1/DTD/svg11.dtd">
<!-- Creator: CorelDRAW 2017 -->
<svg xmlns="http://www.w3.org/2000/svg" xml:space="preserve" width="187.338mm" height="96.703mm" version="1.1" style="shape-rendering:geometricPrecision; text-rendering:geometricPrecision; image-rendering:optimizeQuality; fill-rule:evenodd; clip-rule:evenodd"
viewBox="0 0 18733.8 9670.3"
 xmlns:xlink="http://www.w3.org/1999/xlink">
 <defs>
  <style type="text/css">
   <![CDATA[
    .fil2 {fill:none}
    .fil4 {fill:#84090C}
    .fil0 {fill:#9D0E14}
    .fil6 {fill:#DC0F0F}
    .fil5 {fill:#E83E0B}
    .fil3 {fill:#F28918}
    .fil1 {fill:#9D0E14;fill-rule:nonzero}
   ]]>
  </style>
 </defs>
 <g id="Camada_x0020_1">
  <metadata id="CorelCorpID_0Corel-Layer"/>
  <g id="_2469486205488">
   <g>
    <polygon class="fil0" points="12217.36,3057.65 9945.49,3059.56 9943.83,3715.39 12215.69,3713.48 12214.03,4369.31 9942.17,4371.22 9940.5,5027.04 12212.36,5025.13 12210.7,5680.96 9370.87,5683.34 9379.18,2404.21 12219.01,2403.72 "/>
    <polygon class="fil0" points="12646.02,3057.67 14687.68,3058.32 12640.94,5026.77 12640.55,5682.55 15480,5680.93 15480.78,5026.77 13444.25,5026.84 15483.12,3057.67 15483.9,2403.84 12644.52,2405.01 "/>
    <polygon class="fil0" points="18729.1,2403.78 18720.84,5680.99 15881,5683.4 15882.63,5035.56 18167.03,5035.04 18171.52,4129.62 15884.91,4127.99 15889.33,2404.3 16445.03,2404.17 16453.68,3569.24 18170.02,3569.95 18168.46,2403.78 "/>
    <g>
     <path class="fil1" d="M11674.94 6472.42c0,95.7 -33.13,196.45 -99.43,303.11 -87.67,140.33 -215.18,249.11 -382.23,326.64 -153.97,70.83 -319.43,106.38 -496.38,106.38l-258.47 0 250.2 -803.49 279.31 0 -211.43 678.4c104.25,0 207.7,-31.54 310.06,-94.9 102.38,-63.07 176.96,-141.13 224.01,-234.14 42.48,-82.07 63.61,-150.49 63.61,-205.28 0,-89.82 -25.13,-154.24 -75.11,-193.53 -44.9,-34.49 -113.86,-51.59 -206.89,-51.59l-757.25 0 120.55 -197.26 758.04 0c130.99,0 240.04,27.52 327.19,82.86 102.9,65.48 154.22,159.57 154.22,282.8z"/>
     <polygon class="fil1" points="10363.76,6106.72 10054.66,6652.41 10356.59,7208.56 9410.43,7208.48 9410.68,6983.96 9995.64,6987.38 9814.19,6650.79 9999.71,6322.17 9410.64,6327.14 9410.9,6107.1 "/>
    </g>
    <path class="fil1" d="M11837.93 7189.3l0 -1063.16 344.23 0c130.44,0 215.32,5.14 254.94,15.82 60.83,16.08 111.84,50.75 152.9,104.2 41.06,53.45 61.63,122.46 61.63,207.15 0,65.31 -11.87,120.02 -35.4,164.57 -23.72,44.55 -53.71,79.42 -90.09,104.92 -36.38,25.25 -73.49,42.05 -111.12,50.23 -51.21,10.15 -125.23,15.35 -222.25,15.35l-139.52 0 0 400.92 -215.32 0zm215.32 -883.49l0 302.91 117.05 0c84.36,0 140.52,-5.74 168.99,-16.87 28.47,-11.14 50.75,-28.41 66.83,-52.47 16.08,-23.72 24.25,-51.21 24.25,-82.91 0,-38.82 -11.4,-70.72 -33.87,-95.96 -22.81,-25.31 -51.28,-41.13 -86.15,-47.52 -25.5,-4.75 -76.71,-7.18 -153.96,-7.18l-103.14 0zm775.14 883.49l0 -1063.16 452.13 0c113.63,0 196.28,9.62 247.75,28.67 51.74,19.05 92.8,52.99 123.71,101.7 30.98,49.03 46.53,104.72 46.53,167.6 0,79.88 -23.27,145.72 -69.99,197.72 -46.8,51.94 -116.6,84.63 -209.66,98.27 46.27,26.96 84.43,56.62 114.35,89.04 30.19,32.43 70.79,90.1 121.73,172.75l129.71 207.41 -256.64 0 -153.97 -232.13c-55.16,-82.45 -92.99,-134.38 -113.56,-155.94 -20.29,-21.28 -41.85,-36.11 -64.58,-44.02 -23.01,-7.91 -59.19,-11.87 -108.69,-11.87l-43.5 0 0 443.96 -215.32 0zm215.32 -613.27l158.84 0c102.95,0 167.08,-4.42 192.78,-13.12 25.51,-8.63 45.81,-23.72 60.18,-45.01 14.56,-21.29 21.75,-48.05 21.75,-79.95 0,-35.92 -9.63,-64.59 -28.67,-86.87 -19.05,-22.01 -46.07,-35.92 -80.67,-41.58 -17.6,-2.51 -69.8,-3.69 -156.67,-3.69l-167.54 0 0 270.22zm849.56 613.27l0 -1063.16 215.32 0 0 1063.16 -215.32 0zm420.03 0l0 -1063.16 208.34 0 437.56 712.46 0 -712.46 198.98 0 0 1063.16 -215.06 0 -430.84 -698.89 0 698.89 -198.98 0zm1311.37 0l0 -883.49 -314.77 0 0 -179.67 843.42 0 0 179.67 -313.33 0 0 883.49 -215.32 0zm660.53 0l0 -1063.16 215.33 0 0 1063.16 -215.33 0zm420.04 0l0 -1063.16 208.33 0 437.56 712.46 0 -712.46 198.98 0 0 1063.16 -215.06 0 -430.84 -698.89 0 698.89 -198.97 0zm1566.76 -390.5l0 -179.73 461.82 0 0 424.24c-44.82,43.77 -109.87,82.13 -195.29,115.54 -85.08,33.15 -171.49,49.76 -259.08,49.76 -111.12,0 -207.87,-23.26 -290.59,-70.06 -82.38,-46.73 -144.47,-113.82 -186.06,-200.69 -41.59,-86.86 -62.41,-181.64 -62.41,-283.86 0,-110.86 23.26,-209.39 69.6,-295.73 46.53,-86.14 114.28,-152.45 203.65,-198.52 68.28,-35.39 152.98,-52.92 254.41,-52.92 131.95,0 235.09,27.68 309.37,83.11 74.02,55.69 121.73,132.14 143.02,230.15l-213.8 40.14c-14.83,-52.27 -43.04,-93.59 -84.43,-123.98 -41.06,-30.25 -92.54,-45.34 -154.43,-45.34 -93.52,0 -168,29.72 -223.23,89.37 -55.16,59.65 -82.91,147.96 -82.91,265.08 0,126.41 28.01,221.19 83.9,284.33 56.22,63.14 129.45,94.77 220.27,94.77 44.81,0 89.83,-8.89 134.91,-26.49 45.28,-17.53 83.9,-39.08 116.33,-64.33l0 -134.84 -245.05 0z"/>
   </g>
   <g>
    <line class="fil2" x1="8361.12" y1="7217.74" x2="8361.12" y2= "2405.91" />
    <polygon class="fil3" points="4167.15,962.38 833.43,2887.1 833.43,3849.46 4167.15,1924.73 4167.15,2887.1 833.43,4811.83 833.43,5774.2 4167.15,3849.47 4167.15,4811.85 -0.02,7217.75 -0.01,2405.91 4167.15,0 "/>
    <polygon class="fil0" points="4167.15,962.38 3079.51,2552.68 833.42,3849.46 833.42,2887.1 "/>
    <polygon class="fil4" points="2229.58,3043.2 833.1,2887.09 833.1,3849.46 "/>
    <polygon class="fil0" points="4167.16,2887.1 3079.51,4477.42 833.42,5774.19 833.42,4811.83 "/>
    <polygon class="fil4" points="2229.91,4967.93 833.46,4811.87 833.43,5774.2 "/>
    <polygon class="fil5" points="8387.97,2405.93 4220.8,0.01 4220.8,962.38 7554.54,2887.11 4220.81,3849.48 4220.8,4811.85 8387.98,7217.76 8387.98,6255.4 5054.24,4330.67 8387.97,3368.3 "/>
    <polygon class="fil0" points="5054.24,4330.67 5887.72,4811.88 8387.97,3368.29 "/>
    <polygon class="fil0" points="4220.8,962.38 6630.04,3153.99 7554.54,2887.11 "/>
    <g>
     <polygon class="fil6" points="5027.37,5339.62 4193.95,4858.44 2110.35,6061.39 5444.09,7986.12 4193.95,8707.92 860.22,6783.17 26.79,7264.35 4193.94,9670.29 8361.12,7264.34 7527.68,6783.17 6277.53,7504.94 3777.22,6061.39 "/>
     <polygon class="fil4" points="7527.68,6783.17 6317.49,6084.46 6312.98,7494.33 "/>
     <polygon class="fil4" points="5444.09,7986.12 4219.63,7279.18 4195.37,8707.09 "/>
    </g>
   </g>
  </g>
 </g>
</svg>
